HIERARCHY
ROOT SpineBase
{
  OFFSET 0.000000 0.000000 0.000000
  CHANNELS 6 Xposition Yposition Zposition Zrotation Xrotation Yrotation
  JOINT SpineMid
  {
    OFFSET 0.000000 29.866055 0.000000
    CHANNELS 3 Zrotation Xrotation Yrotation
    JOINT SpineShoulder
    {
      OFFSET 0.174648 22.123964 -0.711143
      CHANNELS 3 Zrotation Xrotation Yrotation
      JOINT Neck
      {
        OFFSET 0.072110 7.291267 -0.500876
        CHANNELS 3 Zrotation Xrotation Yrotation
        JOINT Head
        {
          OFFSET 2.184272 12.497318 0.345017
          CHANNELS 3 Zrotation Xrotation Yrotation
          End Site
          {
            OFFSET 0 0 0
          }
        }
      }
      JOINT ShoulderLeft
      {
        OFFSET -11.359679 -2.416981 -9.246875
        CHANNELS 3 Zrotation Xrotation Yrotation
        JOINT ElbowLeft
        {
          OFFSET -7.628768 -21.895805 -1.296363
          CHANNELS 3 Zrotation Xrotation Yrotation
          JOINT WristLeft
          {
            OFFSET 0.617934 -21.259487 -5.897948
            CHANNELS 3 Zrotation Xrotation Yrotation
            JOINT HandLeft
            {
              OFFSET 0.259171 -4.864893 0.455518
              CHANNELS 3 Zrotation Xrotation Yrotation
              JOINT HandTipLeft
              {
                OFFSET 0.393245 -6.480770 -1.156848
                CHANNELS 3 Zrotation Xrotation Yrotation
                End Site
                {
                  OFFSET 0 0 0
                }
              }
              JOINT ThumbLeft
              {
                OFFSET -2.727153 -1.291448 -1.115109
                CHANNELS 3 Zrotation Xrotation Yrotation
                End Site
                {
                  OFFSET 0 0 0
                }
              }
            }
          }
        }
      }
      JOINT ShoulderRight
      {
        OFFSET 12.740571 -4.639020 6.479143
        CHANNELS 3 Zrotation Xrotation Yrotation
        JOINT ElbowRight
        {
          OFFSET -2.658083 -22.034925 -12.700798
          CHANNELS 3 Zrotation Xrotation Yrotation
          JOINT WristRight
          {
            OFFSET 4.679779 -25.863259 9.005942
            CHANNELS 3 Zrotation Xrotation Yrotation
            JOINT HandRight
            {
              OFFSET -0.838104 -1.385859 -0.629335
              CHANNELS 3 Zrotation Xrotation Yrotation
              JOINT HandTipRight
              {
                OFFSET 0.461007 -2.138642 -5.414312
                CHANNELS 3 Zrotation Xrotation Yrotation
                End Site
                {
                  OFFSET 0 0 0
                }
              }
              JOINT ThumbRight
              {
                OFFSET -0.937001 2.041089 -0.497031
                CHANNELS 3 Zrotation Xrotation Yrotation
                End Site
                {
                  OFFSET 0 0 0
                }
              }
            }
          }
        }
      }
    }
  }
  JOINT HipLeft
  {
    OFFSET -5.908332 0.977980 -6.206193
    CHANNELS 3 Zrotation Xrotation Yrotation
    JOINT KneeLeft
    {
      OFFSET -3.252963 -29.069227 1.323986
      CHANNELS 3 Zrotation Xrotation Yrotation
      JOINT AnkleLeft
      {
        OFFSET -9.458023 -32.579477 3.049893
        CHANNELS 3 Zrotation Xrotation Yrotation
        JOINT FootLeft
        {
          OFFSET 2.720923 -5.631212 -4.324520
          CHANNELS 3 Zrotation Xrotation Yrotation
          End Site
          {
            OFFSET 0 0 0
          }
        }
      }
    }
  }
  JOINT HipRight
  {
    OFFSET 6.021786 0.370716 0.048588
    CHANNELS 3 Zrotation Xrotation Yrotation
    JOINT KneeRight
    {
      OFFSET -4.141856 -29.516115 5.754617
      CHANNELS 3 Zrotation Xrotation Yrotation
      JOINT AnkleRight
      {
        OFFSET -8.293238 -34.420038 9.131104
        CHANNELS 3 Zrotation Xrotation Yrotation
        JOINT FootRight
        {
          OFFSET 2.749581 -7.358060 -4.591883
          CHANNELS 3 Zrotation Xrotation Yrotation
          End Site
          {
            OFFSET 0 0 0
          }
        }
      }
    }
  }
}
MOTION
Frames: 14
Frame Time: 0.033333
-5.711622 73.387243 356.680829 -2.951312 -0.968257 -28.284962 0.737046 0.210386 28.186293 -0.078527 -0.353128 -0.086296 0.006002 0.462035 0.391863 0.000000 0.000000 0.000000 -2.559992 1.801489 0.421585 78.896099 7.392374 -27.553281 -6.407086 34.763199 8.478014 6.947649 -17.388120 -6.911418 0.000000 0.000000 0.000000 0.000000 0.000000 0.000000 16.409527 -3.833872 -7.445099 -139.318894 46.481132 86.057999 12.050781 8.793093 -17.575010 64.371009 -21.373918 69.855605 0.000000 0.000000 0.000000 0.000000 0.000000 0.000000 5.345659 2.398925 28.374791 -2.747202 2.259643 -0.495509 3.373587 14.482491 4.070690 0.000000 0.000000 0.000000 6.418744 3.663765 28.973559 -4.762370 1.560826 -1.203082 -2.064386 -4.865099 0.121000 0.000000 0.000000 0.000000
-5.705542 73.427648 356.588687 -3.009477 -1.131137 -27.280232 0.688764 -0.002505 27.170548 -0.020587 -0.370236 -0.089940 -0.068728 0.797244 0.412784 0.000000 0.000000 0.000000 -2.909889 2.675402 0.330541 82.565291 12.146422 -31.496894 -1.868542 28.253858 14.116949 8.408848 -7.595421 -16.271050 0.000000 0.000000 0.000000 0.000000 0.000000 0.000000 16.696155 -4.006022 -7.516390 -141.215819 46.169219 89.530260 3.209971 -5.415446 -21.888615 63.281470 -17.230200 61.049729 0.000000 0.000000 0.000000 0.000000 0.000000 0.000000 5.766357 2.596313 27.363026 -3.411952 2.445946 -0.561938 3.065943 15.452426 4.990588 0.000000 0.000000 0.000000 6.286427 3.194000 27.957939 -4.020525 1.223406 -0.910314 -8.126907 -18.340574 -3.604391 0.000000 0.000000 0.000000
-5.749675 73.423090 356.403292 -3.105903 -1.242768 -26.482049 0.692207 -0.101945 26.363556 0.083866 -0.398248 -0.089107 -0.771019 1.107467 0.443032 0.000000 0.000000 0.000000 -2.515273 6.792920 -0.861188 90.598113 23.195052 -39.699095 0.774230 13.604568 28.407846 21.789499 11.994144 -41.943859 0.000000 0.000000 0.000000 0.000000 0.000000 0.000000 16.960166 -7.162384 -6.977892 -143.838082 46.040529 99.367462 2.145113 -31.514090 -25.291103 48.407690 -17.777773 44.952447 0.000000 0.000000 0.000000 0.000000 0.000000 0.000000 6.106668 2.777987 26.550158 -3.722038 2.256719 -0.514876 2.234058 16.497822 5.958734 0.000000 0.000000 0.000000 6.194279 2.602171 27.159940 -3.572431 1.718440 -0.882990 -9.043080 -21.368059 -4.844232 0.000000 0.000000 0.000000
-5.742746 73.356848 356.166258 -3.206427 -1.431571 -26.075904 0.680542 -0.191663 25.946175 0.166392 -0.484249 -0.091103 -1.224798 1.952781 0.415178 0.000000 0.000000 0.000000 -2.870423 11.576471 -2.093729 100.950356 41.510794 -56.330681 16.751471 -0.171502 57.343107 47.413288 49.885081 -136.647005 0.000000 0.000000 0.000000 0.000000 0.000000 0.000000 18.043372 -14.289222 -5.877080 -147.444671 46.442082 114.988288 35.801841 -76.267619 8.715351 12.153648 -5.073881 17.190349 0.000000 0.000000 0.000000 0.000000 0.000000 0.000000 6.072691 2.931653 26.119885 -3.528340 1.470408 -0.279215 1.889959 15.728450 5.323824 0.000000 0.000000 0.000000 6.029733 2.108569 26.742044 -3.104902 2.223043 -0.857194 -6.411026 -17.857243 -4.232575 0.000000 0.000000 0.000000
-5.656995 73.330287 355.880259 -3.096099 -1.574718 -26.377205 0.940257 -0.010446 26.254971 0.602340 -0.453848 -0.049624 -4.389053 1.907566 0.541916 0.000000 0.000000 0.000000 -4.887218 19.272727 -4.097565 111.434832 64.283938 -77.050504 65.590994 16.630346 139.074843 93.783624 -15.053790 102.396487 0.000000 0.000000 0.000000 0.000000 0.000000 0.000000 18.359092 -24.288209 -3.744402 -152.505880 49.577376 134.951629 -23.361055 -78.857989 -42.866993 6.645792 -17.698316 15.728042 0.000000 0.000000 0.000000 0.000000 0.000000 0.000000 5.658833 2.749624 26.437869 -3.186547 1.628136 -0.281395 1.665202 10.122922 3.234027 0.000000 0.000000 0.000000 5.640611 1.681139 27.032133 -2.669480 2.603297 -0.826199 -6.251234 -19.400933 -5.133934 0.000000 0.000000 0.000000
-5.657757 73.328815 355.586080 -3.560121 -1.492975 -26.705186 0.289867 -0.110656 26.555180 0.507896 -0.698280 -0.102014 -0.622702 0.358945 0.649049 0.000000 0.000000 0.000000 -4.126805 24.615349 -5.467800 166.454675 81.360646 -146.692932 57.442234 51.177189 -167.518499 68.588227 -43.556601 59.740526 0.000000 0.000000 0.000000 0.000000 0.000000 0.000000 19.317536 -30.245928 -1.641586 -149.408108 58.515690 139.397671 -5.922981 -66.629123 -25.191379 4.246502 -35.198056 15.211299 0.000000 0.000000 0.000000 0.000000 0.000000 0.000000 5.962659 2.723184 26.754240 -2.981491 1.740398 -0.284669 3.462274 12.284004 2.666135 0.000000 0.000000 0.000000 5.953347 1.194521 27.350819 -2.255250 3.123405 -0.818736 -5.062143 -18.787211 -5.404620 0.000000 0.000000 0.000000
-5.762474 72.921676 355.291721 -3.711061 -1.735107 -27.243110 0.993127 -0.232055 27.080459 -0.216067 -0.403071 -0.119566 -2.974148 2.707733 0.585830 0.000000 0.000000 0.000000 -4.747846 26.350057 -5.514859 -135.371743 78.498088 147.589464 3.111858 30.710565 39.004543 -33.835159 31.762452 -113.724022 0.000000 0.000000 0.000000 0.000000 0.000000 0.000000 20.590692 -36.123848 0.088795 -149.106674 65.839253 143.694131 -12.355213 -52.739320 -28.453880 5.663616 -43.227339 19.947672 0.000000 0.000000 0.000000 0.000000 0.000000 0.000000 5.746759 2.984788 27.256462 -2.187878 0.409187 0.144932 6.103112 17.524930 1.155908 0.000000 0.000000 0.000000 6.321272 1.216055 27.943214 -2.416223 3.573027 -0.900115 -4.535529 -17.180311 -4.848314 0.000000 0.000000 0.000000
-5.622179 72.477593 355.073703 -3.558684 -2.266432 -26.654532 1.060857 -0.432389 26.481140 -0.455937 -0.127073 -0.117070 -4.410031 5.367133 0.512359 0.000000 0.000000 0.000000 -4.602160 29.049493 -6.107470 -119.222602 78.878268 130.421255 -2.155090 21.977251 8.584545 -35.823573 13.521000 -72.755025 0.000000 0.000000 0.000000 0.000000 0.000000 0.000000 19.975084 -38.879208 1.398154 -136.764556 74.332177 133.003728 -7.007063 -38.619863 -23.946406 11.831047 -58.906870 26.649723 0.000000 0.000000 0.000000 0.000000 0.000000 0.000000 4.399057 3.429071 26.595712 -0.917386 -0.815316 0.467760 9.190785 23.295813 -0.129329 0.000000 0.000000 0.000000 6.374445 1.321601 27.416596 -2.670706 3.976073 -0.989671 -2.993054 -13.910746 -4.068755 0.000000 0.000000 0.000000
-5.347188 72.138326 354.902979 -3.275649 -2.941501 -25.408873 0.742223 -0.655822 25.230797 -0.398361 0.097334 -0.109466 -4.701506 8.220938 0.349221 0.000000 0.000000 0.000000 -0.862574 33.301618 -8.591249 -78.773397 80.501495 87.576992 8.146023 10.277088 30.475784 -31.301721 35.728139 -74.427739 0.000000 0.000000 0.000000 0.000000 0.000000 0.000000 19.739315 -42.086291 2.782514 -112.889537 79.573099 109.306816 -4.770121 -26.691997 -21.241399 18.000478 -65.429997 35.990214 0.000000 0.000000 0.000000 0.000000 0.000000 0.000000 2.641195 3.982225 25.288231 0.324325 -1.896103 0.722131 12.070236 29.183387 -0.931398 0.000000 0.000000 0.000000 6.253864 1.365973 26.237581 -3.754201 4.257951 -1.194947 0.013204 -8.878227 -2.888816 0.000000 0.000000 0.000000
-4.893365 71.913222 354.851279 -2.813946 -3.726649 -23.812552 0.233930 -0.839149 23.647566 -0.132875 0.203080 -0.098104 -4.453604 11.328593 0.071459 0.000000 0.000000 0.000000 7.104487 38.527191 -13.836817 1.118598 73.529698 11.969333 9.004835 7.609632 32.019611 -21.938716 33.492309 -57.570353 0.000000 0.000000 0.000000 0.000000 0.000000 0.000000 17.337991 -39.602991 2.425607 -53.683315 75.050088 47.854393 -1.601761 -15.217988 -16.272578 26.959023 -71.528664 41.352933 0.000000 0.000000 0.000000 0.000000 0.000000 0.000000 1.075060 4.543314 23.678341 1.016723 -2.356478 0.800798 13.026698 29.171427 -1.624740 0.000000 0.000000 0.000000 5.276039 1.272998 24.611132 -3.281128 4.536785 -1.148125 1.472825 -6.775499 -2.907864 0.000000 0.000000 0.000000
-4.324032 71.822146 354.820016 -2.277127 -4.484200 -22.478229 -0.283059 -0.934064 22.344454 0.217970 0.245440 -0.086593 -3.838629 14.144967 -0.316393 0.000000 0.000000 0.000000 20.576084 44.601371 -23.853506 4.838801 55.360477 7.066702 8.030156 11.984116 28.407428 -16.885418 20.158423 -42.376123 0.000000 0.000000 0.000000 0.000000 0.000000 0.000000 13.602368 -35.032588 2.033569 -29.845233 64.497114 22.913990 -9.074082 -41.679142 4.432677 -10.907582 -44.601614 -14.602779 0.000000 0.000000 0.000000 0.000000 0.000000 0.000000 -1.813525 5.315022 22.358260 2.840726 -3.545569 1.061367 12.781931 26.246457 -2.335971 0.000000 0.000000 0.000000 3.722361 1.048306 23.188236 -1.491580 4.954022 -0.928014 5.400264 -9.723391 -6.788156 0.000000 0.000000 0.000000
-3.600510 71.796531 355.053805 -1.526447 -5.467529 -21.694170 -0.994179 -0.818470 21.625416 0.539436 0.343752 -0.075862 -2.993470 16.202474 -0.747385 0.000000 0.000000 0.000000 38.572191 47.000404 -37.077047 4.136930 35.500284 6.955046 6.438005 19.022604 22.956575 -11.536225 1.598134 -26.786611 0.000000 0.000000 0.000000 0.000000 0.000000 0.000000 9.360561 -27.924529 1.667523 -19.493581 51.303304 11.274245 -5.825550 -55.115644 21.458706 -12.958844 -25.526364 -28.726170 0.000000 0.000000 0.000000 0.000000 0.000000 0.000000 -4.566275 6.396662 21.671429 4.358040 -4.908892 1.411941 13.014238 26.317047 -2.751378 0.000000 0.000000 0.000000 1.870443 1.733115 22.291615 -0.795509 4.555182 -0.768200 11.121922 -0.498870 -6.861020 0.000000 0.000000 0.000000
-3.549672 72.010846 354.687390 -1.852074 -5.537419 -21.510304 -0.830584 -0.637090 21.414413 1.056075 0.097959 -0.073059 -1.952380 16.990755 -1.143763 0.000000 0.000000 0.000000 57.856975 46.659923 -51.939081 0.526961 15.362057 10.413786 7.579216 25.043804 19.464878 -9.411003 -13.699504 -16.913503 0.000000 0.000000 0.000000 0.000000 0.000000 0.000000 5.178738 -19.198321 1.670305 -13.454118 35.813873 3.647992 2.417039 -52.346008 30.974349 -18.056317 -23.038696 -40.760169 0.000000 0.000000 0.000000 0.000000 0.000000 0.000000 -4.313913 6.508301 21.475682 4.413489 -5.067150 1.469791 12.851482 26.648793 -2.631292 0.000000 0.000000 0.000000 2.410939 1.620964 22.135982 -0.919937 4.920787 -0.836819 12.124476 2.293641 -6.627591 0.000000 0.000000 0.000000
-3.564855 72.324799 353.941353 -2.231834 -5.038611 -23.052919 -0.681343 -0.632621 22.925909 1.630833 -0.356823 -0.067732 -0.658537 16.837274 -1.494393 0.000000 0.000000 0.000000 69.175737 44.113500 -59.929787 -0.539963 1.053634 13.902967 9.136183 25.929165 17.851285 -9.589252 -20.236574 -13.035593 0.000000 0.000000 0.000000 0.000000 0.000000 0.000000 1.446081 -10.524655 2.127334 -10.492755 22.946634 -1.073822 8.172167 -47.928932 34.343388 -19.965409 -22.547250 -43.118608 0.000000 0.000000 0.000000 0.000000 0.000000 0.000000 -3.188106 5.151096 23.006177 4.001955 -4.025235 1.288508 13.316384 26.521351 -3.060091 0.000000 0.000000 0.000000 3.575066 0.902947 23.810927 -1.325030 5.621811 -0.990652 14.587866 10.541123 -5.925673 0.000000 0.000000 0.000000
